<svg height="400" viewBox="0 0 200.00001 319.85305" width="250" xmlns="http://www.w3.org/2000/svg"><g transform="matrix(2.9508045 0 0 2.9508045 -3266.39832 1310.69018)"><path d="m1165.7905-426.69212c4.93 10.31625 7.5463 21.51375 7.6975 33.79375-.5037 8.17625-5.0062 14.77-10.1125 21.11125-.2762 1.96125-.855 3.77375-1.9375 5.40875.026-1.10625.1513-2.18875.051-3.32125h-.1013c-.2762 1.0075-.5775 1.9875-1.055 2.945.6788.65375 1.4838 1.28375 2.2375 1.8875.5288-1.0825 1.9375-1.9375 1.9375-3.29625.125-1.25875-.076-2.79375 1.1813-3.44875 1.1587-.22625 2.0887.705 2.7175 1.6375.7287 1.2825.9812 3.245.05 4.50375-.9063.88-2.1138 1.88625-1.6088 3.295.88 3.045 3.7213 5.435 6.2113 7.3725.6037.57875 1.2837 1.38375 1.0062 2.34125.5038.88125.9575 2.0625.4275 3.06875-.3512.50375-.9812.62875-1.5337.52875-.9063-.2525-1.7113-.83-2.39-1.585-3.6225-.57875-7.7463-1.36-9.4575-5.235-.4775-.75375-.905-1.55875-1.4088-2.31375-.4525.4525-1.0312.70375-1.71.60375l-1.71-1.05625c-1.3837 3.39625-2.365 8.00125-.6287 11.57375-.3525-.25125-.9313-.805-1.2588-1.2825l-.1.0488c.6788 2.6425 1.5338 5.26 3.5213 7.2225-5.4838-2.5925-6.9675-8.75625-7.1438-14.3425-1.2325 1.1575-1.685 2.89375-1.81 4.58.905 1.68625 2.2125 3.22 3.445 4.73125.3513.5525.2513 1.25625.075 1.835-.2512.73125-.98 1.23375-1.4325 1.8625.5775.075 1.1563-.25125 1.735-.3775-1.4587 1.00625-2.7412 2.19-4.05 3.47375.2513.35125.73.5275 1.1825.6275.855.1775 1.8363-.025 2.565.3275.1263.3525-.075.62875-.1.93125-1.685.93125-4.3775.855-5.835-.4025-.2512.705-.9812.905-1.61.805l-.8562-.0762c.755-1.53375 1.2587-3.17 1.4337-4.95625l.88.05c.1775-.73.1013-1.66125-.4262-2.265l-.3025-.17625c-3.5213-.20125-7.5713.0513-11.0175 1.25875.1762.55375-.1 1.8875.88 1.48375.1525 1.385.9812 2.4675 1.61 3.62375-.025.655-.4775 1.1825-.6538 1.8125h-1.1575c-.1762-.3025-.2762-.705-.5275-1.03125-1.2837 1.5-3.4962 1.5-5.2325 1.10625-.2762-.17625-.7037-.17625-.6787-.60375.075-1.10625 1.51-.3025 2.2137-.655.7288-.20125 1.2063-1.00625 1.6088-1.61-1.0813-.98-2.3125-1.9875-3.4963-2.8675l.655.15c-.705-.78-1.4337-1.71-1.3837-2.86875.3775-2.7925 3.4462-4.3775 4.2512-7.02-.2-2.21375-.8312-4.27625-1.5337-6.265l-.1513.17625c-.63 4.60375-.4025 9.41125-3.5462 12.95875l.225-1.61125c-1.3575 2.29-3.0938 4.9075-5.5088 6.59375 1.0063-1.41 1.9613-3.19625 2.515-4.9825-.88.855-1.6087 2.21375-2.8162 2.7675 2.5662-3.12 2.1875-7.54875 2.2625-11.525l-.175-3.245c-.6788.125-1.1313-.3025-1.5338-.70375-1.8612 2.1875-3.4212 5.28375-6.34 6.13875-1.3825.27625-2.8175.4025-4.2762.5025-1.3075.755-2.9175 1.9125-4.5275 1.0325-.8038-1.36.3525-2.6425.6287-3.95 2.1138-3.24625 6.0875-5.43625 7.4463-8.98375-.075-1.38375-1.4588-2.21375-1.8863-3.4725-.3775-.805-.6287-1.88625-.2775-2.8175.655-1.585 2.1388-3.4725 4.025-3.59875.3775 0 .73.3025.83.62875.3275 1.0825-.2012 2.06375-.076 3.19625.1262 1.35875.1262 2.7925 1.1325 3.775 1.3337-.63 2.415-1.8125 3.5462-2.86875l.1513-2.79375c-5.76-7.07-10.5888-14.51875-11.1175-23.72875-.905-11.04625 2.565-21.08625 6.8912-30.37 4.0263-8.8825 12.855-17.5125 22.4888-19.3 11.3687-1.9625 20.8775 7.875 24.7762 17.23625"/><path d="m1164.4317-428.65487c5.5838 11.1975 8.83 23.4275 8.6038 36.9375-.8813 7.29875-4.83 13.3125-9.51 19.04875.1012-1.635.026-3.27125-.25-4.83125.5275.88.98 2.18875 1.5087 3.22125.2013-4.93125-1.4587-9.51125-5.5337-12.58125l.3525-1.2575c.5025 0 1.0562 0 1.535.175-.3025-.4275-.9313-.65375-1.46-.83-.2525-1.35875-.5288-2.96875-2.0113-3.64875-1.2587-.35125-2.2387.4525-3.095 1.33375l-.6287.88125c-1.3575-1.36-.1-3.2475-.2013-4.85625l.4288.20125c.6525-1.81125.2-4.0525-.4288-5.83875.1763.15125.4288.22625.6288.3275-.1-1.8875-1.2575-3.67375-2.8913-4.73.5775-.0763 1.2063 0 1.7838.1-.5775-.93125-1.6588-1.46-2.7663-1.535-.7037 0-1.2575.3275-1.76.78.075-.67875.4025-1.2325.7038-1.81125l-.025-.05c-.6788.6025-1.2325 1.3325-1.685 2.0375v-.68c-2.9438 2.79375-.4538 7.44875-2.8688 10.56875-1.005-3.5975-1.3325-8.35375-5.5575-9.8125l.6288.95625c-1.6613-.20125-3.195.5025-4.075 1.9625l-.3275.78c.4537-.42875 1.0312-.855 1.66-1.0325-1.5338 1.56-2.2388 3.62375-1.8863 5.7375l.3025-.22625c-.1275 1.9375.1763 3.79875.8288 5.435-.4025.805-.8538 1.61-1.66 2.21375-.9813-1.3325-2.0625-3.775-4.2-3.4975-1.3575.17625-2.3138 1.71125-2.7163 2.86875-.3275 1.1575-.2775 2.6925.125 3.8-4.3262 3.42125-6.0112 8.50375-5.6837 13.93875.3512-.72875.7287-1.71 1.1562-2.54l-.705 3.95c-5.6587-6.97-10.3625-14.4675-10.79-23.6275-.68-10.895 2.6413-20.78375 7.0175-29.9175 4.1263-8.8325 12.7275-17.18625 22.3875-18.8725 10.1363-1.535 18.915 6.44125 23.065 14.92125" fill="#ecd9b2"/><path d="m1152.5093-405.40475c-.5525-.05-1.3087-.05-1.8862.12625 1.6849.88125 3.1187 2.515 3.395 4.3775-.83-.4275-.905-1.43375-1.735-1.9375.7287 1.1575 1.3074 2.46625 1.6599 3.825.2763 1.2075.3526 2.44.075 3.69875-.4276-.90625-.175-2.06375-.7038-2.89375.6038 4.12625-.5288 8.0275-3.195 10.94625-.4775.15125-.7037.90625-1.3825.62875.8038-1.435 1.6838-3.045 2.1125-4.73125.4525-2.9425 1.0312-7.02-1.8362-8.90625l-.2263-.0762c.1762-.45375.5788-.905.9813-1.35875-1.4338.73-2.0126 2.44125-2.6676 3.775-1.3574 3.5725-1.7349 7.52375-1.6099 11.625-.175.125-.4513.125-.6526.175-.051-5.0825-.7299-9.91375-3.9487-13.6875-.2775-.20125-.555-.52875-.9062-.55375l1.0312 1.2575c-1.585 1.1075-2.365 2.87-2.3387 4.705.15 3.045 1.5337 5.6375 3.47 7.9775-1.9875 0-3.47-2.26375-4.5025-3.82375-1.8613-2.795-2.3888-7.0475-.8551-10.11625-.6537.65375-.855 1.71125-1.2574 2.6175-.1013-2.08875.7037-4.0525 2.49-5.31.3025-.075.6037-.2275.905-.3525-.8288-.05-1.685.17625-2.3638.52875.6788-1.0825 2.1138-1.66 3.4463-1.33375.5025.1.5537.63.9549.905-.05-.5525-.5274-1.05625-.8549-1.53375 1.8625.83 2.8425 3.145 3.4212 5.0325.5038 1.8875.6288 3.9 1.685 5.56l-.1263-1.23125c2.3663-2.82.2276-7.04625 2.2901-9.99l.1 1.43375c.2525-.60375.4537-1.43375.9562-2.0625-.05.4275-.1512.83-.1512 1.18125.7812-.805 1.8612-1.73625 3.0437-1.18125.4287.175.83.35125 1.1825.70375" fill="#e85420"/><path d="m1150.8993-394.98675c0 3.145-.83 5.9625-2.6162 8.3525l-2.465.3025v-1.43375c.1012.3525.5787.4275.8312.20125.5275-.68.5525-1.76125.2763-2.6175-.1763-.3025-.63-.4025-.88-.20125l-.1763.20125c.225-3.34625.855-6.99375 2.665-9.91375 2.0888.755 2.34 3.095 2.365 5.10875" fill="#fff"/><path d="m1144.3344-389.9545c-.2013-.2525-.5537-.40375-.83-.22625-.7037.70375-.3525 1.8875-.026 2.61625.1262.3025.4537.4525.73.4025l.3025-.3525c-.1013.52875.4275 1.63625-.4788 1.63625-1.76.175-2.3387-1.9125-3.245-2.97-1.4087-2.33875-2.49-5.51-1.2063-8.2525.3513-.655.9301-1.33375 1.5851-1.78625 2.0375 2.49 2.7662 5.66125 3.1687 8.9325" fill="#fff"/><path d="m1134.7254-388.99912-2.7425-.27625c-.4262-.3775-.98-.90625-1.5075-1.18375.2.35375.83.80625 1.055 1.23375-1.3325.0763-2.49.4025-3.5462 1.1075-.2013-1.635.3525-3.09625 1.485-4.1775.5775-.5275 1.4575-.755 2.2625-.4775 1.4587.855 2.315 2.39 2.9937 3.77375" fill="#fee9d5"/><path d="m1158.5965-391.288c.3775.705.6288 1.46.705 2.28875l-1.7862-.27625c.1-.3525.4775-.62875.7787-.90625-.4775.0763-.88.4525-1.2562.80625-1.1575-.0763-2.215.1-3.2713.32625.4275-1.3325 1.6613-2.86875 3.12-3.145.7038-.075 1.3325.3525 1.71.90625" fill="#fee9d5"/><path d="m1158.9238-388.57125c-1.585.35125-3.5475.0763-4.905 1.0575 1.0563-.10125 2.515-.78 3.4963.075 4.3012 2.18875 6.54 6.6925 6.8412 11.2475-.83-1.635-1.3837-3.3975-2.4387-4.9575-.076-.05-.1013-.125-.1763-.125 1.585 3.82375 2.0625 9.26.2013 13.185-.3525-2.13875.3512-4.58-.4025-6.5925.6287 9.21-8.0738 14.97125-7.1438 24.3575l.2263 1.76125c-.88-1.0075-.58-2.51625-.78-3.8.05-1.1075.1012-2.76875.2512-4.07625-1.3075 4.63-.3775 10.065 1.9875 14.04-3.6725-2.96875-4.6787-7.4475-5.0062-12.0025-.3775-5.71125 1.56-11.14625.2262-16.50625-.4512-1.41-1.0812-2.91875-2.4387-3.77375.4525-.67875.78-1.40875.905-2.215 1.5337-.45125 3.0687-1.685 3.8237-3.14375.5275-1.335.805-3.07125.2513-4.48.7287-.27625 1.635-.1 2.4137-.12625-.8287-.15-1.71-.3275-2.615-.175-.855-1.23375-2.2137-1.61125-3.5975-1.7875 2.2638-2.0375 5.685-2.94375 8.88-1.9625" fill="#e85420"/><path d="m1143.2032-385.60237c-1.485.55375-3.2712 1.76125-3.5725 3.47375-.15 1.43375.1 2.8675 1.1063 3.87375 2.2137 2.165 5.6599 2.06375 8.5025 1.51-.051 1.28375-1.1575 2.365-2.3138 2.81875-1.3838.5525-3.4212.62875-4.855.175.78-.25125 1.585-.075 2.2637-.4775-2.7925.3025-5.3825-1.13125-6.665-3.59875v-.075c.8051.52875 1.5076 1.25875 2.4888 1.35875-1.4075-.62875-2.7413-2.24-2.8425-3.875.3275.30125.4288.73.7812.93125-.7049-1.2825-.4275-3.095-1.2587-4.42875.755-.075 1.535.2525 2.2887.3775-2.3887-1.18375-5.9362-1.0825-8.2249.55375 1.5599-.805 3.5474-1.1075 5.4837-1.00625.7288.83.755 1.9625.93 3.01875l-.3512-.4025c0 1.0825.2262 2.215.78 3.06875-.2526-.0987-.6038-.5775-.9063-.90375.4775 2.23875 2.7175 4.655 5.0563 5.1075-.1763.05-.5788.075-.8801.15125.8551.65375 2.0376.75375 3.1188.855-2.5412 1.23375-5.1313-.10125-7.0187-1.81125.3537.77875 1.2075 1.35875 1.9624 1.86125-2.6412.63-5.0049 3.145-5.8862 5.66125-3.0687 5.6125-2.2887 12.85875-4.075 19.04875-.2762.805-.5525 1.55875-1.0562 2.29-.1001-1.58625.9062-2.97.6037-4.70625-.6787 3.4475-2.3888 6.5425-4.855 9.15875 1.535-2.94375 2.265-6.5175 2.0638-9.8625-.3263 2.6175-.3525 5.35875-2.2138 7.3475 2.0875-7.80125-.73-17.08625 1.1575-24.9625-.9063 1.335-.9562 3.2475-1.6112 4.78125-.5525-5.35875.1512-10.81875 2.3899-15.32375-1.3325 1.46-2.0374 3.4475-2.9424 5.23375.1-5.585 2.9687-10.945 8.25-13.28625l1.8112-.4025c-1.4337-.5275-2.565.93125-3.9237.0512 2.0374-1.28375 5.4587-.85625 7.7725-.0512 2.2387.80625 4.2762 1.91375 6.6412 2.46625" fill="#e85420"/><g fill="#fee9d5"><path d="m1159.0244-387.11163c-.58-.12625-1.0575-.57875-1.61-.83.5788-.10125 1.2075-.10125 1.835-.17625z"/><path d="m1129.368-387.38912c-.3512.2525-.755.53-1.1325.705l-.2-1.10625z"/><path d="m1153.7422-384.09188c.3775 2.34-.1512 4.68-2.2387 6.01375-2.7925 1.73625-7.1688 1.9625-9.9863.17625-1.2575-.88125-1.635-2.29-1.61-3.775 0-2.13875 2.3138-3.245 3.9738-3.875 2.7925-.70375 6.7424-1.66125 9.2324.47875z"/></g><path d="m1156.257-384.62013h.1513z"/><path d="m1150.6727-371.41037c-.9812-1.0825-2.5912-1.535-4.175-1.25875l-1.0812.3275c-.1763-.17625-.2013-.5025-.2775-.75375 1.2337-.1275 2.39-.45375 3.3712-1.28375 1.1313.60375 1.76 1.81125 2.1625 2.96875" fill="#b13227"/><path d="m1144.3853-368.18938c-.705.83-1.7613 1.08125-2.7675.88-.2012-.05-.4275-.25125-.3775-.5025.1263-1.51125.2762-2.995.1263-4.48 1.2324 0 2.4137-.1 3.395-.73.8062 1.41.4787 3.52375-.3763 4.8325" fill="#ffed00"/><path d="m1141.0647-370.45388c-2.515 1.55875-3.32 4.2775-3.7487 6.97-.4775-1.28375-.2513-2.6925-.2013-4.1275-.4275 1.51125-.5275 3.54875.2763 5.0075.5287-2.8175 1.0562-5.8625 3.6987-7.5475 0 1.35875-.025 2.69125-.88 3.6725-.68 3.3975-.9313 7.02-3.975 9.33625-.1-.555-.1262-1.15875-.2012-1.7875-.78-3.79875-3.0188-9.0075.3512-12.38.9313-.72875 2.0125-1.1575 3.17-1.45875l1.51.4275z" fill="#ffe147"/><path d="m1150.5223-371.03325c1.0813 1.71.78 4.02625.78 6.01375l-.4287 3.75c-.6525 1.2825-1.685 2.415-1.86 3.87375-2.7175-2.8175-.4538-7.5725-3.195-10.41625l-.9563-.4775c.1763-.4025.3275-.73.5025-1.1325 1.485-.0762 2.9188.62875 3.7738 1.9875.7287 1.1575.9312 2.59125 1.1075 4.00125.2512-1.8125 0-3.75-.9063-5.21.1513.75625.5275 1.66125.6288 2.36625-.3263-1.25875-1.4338-2.6175-2.6913-3.07-.6037-.20125-1.1825-.3025-1.8612-.3525.075-.755.2262-1.61.051-2.34 1.6338-.805 3.8988-.45375 5.055 1.00625" fill="#ffe147"/><path d="m1117.7464-371.78738c.051 1.61-.2762 3.5225.1512 5.15875.2763.905.6288 2.0125 1.6851 2.415l-.2263-.4525c1.9875.98 3.5975 3.12 4.125 5.1825-2.0875 2.81875-3.9487 6.5175-7.3687 8.0275-2.24.35125-4.705.77875-6.9438.15-.3275-.15-.5525-.4025-.6787-.70375-.05-.5275.1762-1.00625.6787-1.2575 1.7863-.95625 4.0013-.83125 5.8613-1.58625-2.1875.50375-4.855.17625-6.6413 1.8875-.2012.32625-.25.855-.1 1.2325.6038 1.0075 1.8625.95625 2.9438 1.05625-1.0813.63-2.24 1.385-3.5725.9825-.63-.22625-.4775-1.0575-.3775-1.56 1.3337-3.27125 5.2312-4.10125 6.9925-7.19625-1.785 2.23875-4.4513 3.4725-6.4401 5.61 1.8125-3.5725 6.2901-5.8375 7.7488-9.66125 0-1.43375-1.3587-2.29-1.8375-3.54875-.4012-.75375-.6787-1.61-.4275-2.51625.4788-1.585 1.9625-3.37125 3.7488-3.6475.3012-.0263.5537.20125.6787.4275" fill="#fee9d5"/><path d="m1168.4565-369.32262c.4788 1.0825.4788 2.6425-.1762 3.65-.6288.88-1.71 1.35875-1.71 2.515.1 3.5725 3.4962 6.24 6.2375 8.48.5037.57875 1.1337 1.0825 1.0575 1.8875-1.6863-2.54125-4.6038-2.6175-6.565-4.78125l-.051.0263c2.1138 2.6925 6.1375 2.8175 7.1438 6.44.1.52875.2012 1.28375-.2513 1.7125-.3775.4275-.93.32625-1.4337.20125-.5775-.2275-1.1825-.63-1.56-1.1325.83.1 1.61-.1775 2.0125-.93125.1762-.50375.2762-1.1825-.075-1.66125-1.4838-1.9625-4.075-1.71125-6.2375-2.315l-1.0063-.6275c1.1313 1.50875 3.2438 1.055 4.8038 1.685.805.27625 1.61.62875 2.1125 1.38375.2262.4275.3025 1.05625.1012 1.51-.805 1.05625-2.39.5275-3.4962.4275-2.2138-.62875-4.6288-.78-6.3388-2.6675-1.8112-1.83625-2.4662-4.22625-4.2512-6.065.7287-1.735 1.8612-3.47125 3.4962-4.62875l.1763.62875c.2-.35125.3025-.98125.5537-1.43375.5275-.93125 1.5838-1.66125 1.71-2.79375.2525-1.2575-.1262-2.89375 1.1325-3.5975 1.2075-.025 2.1625 1.1325 2.615 2.0875" fill="#fee9d5"/><path d="m1142.8749-367.98813c.5288-.73.6288-1.8375.6288-2.91875.2775 1.03125.076 2.16375-.6288 2.91875" fill="#ffe147"/><path d="m1135.757-358.93c.1013.73.1263 1.46.1013 2.23875 2.1625-1.15625 3.42-3.5725 3.8987-5.83625.3013-1.63625.3513-3.4225 1.2563-4.83125.7562.70375 2.0387.35125 2.9187-.0263l.6788-.62875c1.51.17625 1.9375 1.8125 2.29 2.96875.4012 2.34.074 5.03375 1.2562 7.04625.2263.4275.655.88125 1.0825 1.05625.1013-1.35875.905-2.51625 1.61-3.69875l-.2262 4.50375c-.58 2.34-3.0938 3.22125-5.1325 3.69875l.076-.62875c-2.6925.55375-5.7612.62875-8.5275.10125l-.025.755c-1.7862-.42875-3.5475-1.2075-4.6275-2.84375-.3525-1.81125-1.8112-3.39625-1.0062-5.41.6537-3.12 1.685-6.115 3.32-8.8575-1.0825 3.5475.2762 7.09625 1.0562 10.3925" fill="#b13227"/><path d="m1123.0795-362.32675.6788-2.29-.05 4.3275c-.6038-1.81125-2.1375-3.5975-3.8238-4.57875l2.6925-2.26375c.1 1.635.075 3.295.5025 4.805" fill="#b13227"/><path d="m1162.1935-364.6665c-2.3137 1.61-3.8475 4.05-4.2512 6.71875-.4525-.42875-2.0375-.60375-1.2325-1.485l3.4712-6.87z" fill="#b13227"/><path d="m1164.0545-361.14375c.68.955.855 2.1125 1.0313 3.27125-.3513-1.33375-.83-3.095-2.2625-3.9-.5288-.17625-1.1838-.2025-1.7363-.12625 1.0062-.3275 2.2888-.2525 2.9675.755"/><path d="m1118.8788-361.44562c-2.44 1.05625-2.2375 3.79875-3.3962 5.73625.8812-2.0375.7049-5.03125 3.3962-5.73625"/><path d="m1159.3009-358.20025c-.2512.20125-.5287.4275-.8562.45375-.3013-.45375.076-1.00625.1775-1.46.3512.20125.7787.62875.6787 1.00625" fill="#b13227"/><path d="m1123.6334-357.0425c-.5287.17625-.705-.3775-.9813-.655l.905-1.25625c.2013.4775.2763 1.3575.076 1.91125" fill="#b13227"/><path d="m1137.0397-351.73388c.2513.95625.3275 1.96375.6038 2.945-1.7863-.35375-3.4725-1.33375-4.6288-2.945l-.3512-2.23875c1.3062 1.1575 2.7662 1.8875 4.3762 2.23875" fill="#54512a"/><path d="m1147.3023-349.92162c-.6787.42625-1.4587.78-2.2637.98125l.3775-2.94375c1.2325-.4025 2.49-.78125 3.5962-1.485-.6787 1.0825.051 2.91875-1.71 3.4475" fill="#54512a"/><path d="m1145.2146-352.71475c-.1262 1.76125-.3775 3.4225-.7537 5.0825-1.8375.73-4.3525.62875-6.2388.10125-.4025-1.66125-.73-3.32125-.9062-5.03375 2.5662.37875 5.4087.35375 7.8987-.15" fill="#ffe147"/><path d="m1137.6434-348.31163c.2762.20125.1263.62875.2762.90625 1.9613.67875 4.6538.805 6.6663.075.2012-.30125.2512-.78.3775-1.1575 1.3325-.2775 2.515-.93 3.5963-1.8875.9562 1.7125 2.2899 3.22125 3.4974 4.78125.6025 1.56-.9824 2.46625-1.8112 3.54875-1.1075.20125-2.265.27625-3.4962.225 0-.75375.075-1.66-.4026-2.28875.6538 0 1.2076.17625 1.76.3525-1.4837-1.25875-4-.805-6.0362-.90625-2.8937.10125-5.6862.50375-8.2 1.56-.1012.10125-.2525.20125-.3275.32625l.6275-.05.2287 1.30875c-1.2087.2025-2.5674.17625-3.7749.0512-1.1063-.805-2.1125-1.9375-1.7851-3.3225.5788-2.44 3.3463-3.97625 4.0751-6.39125 1.2562 1.485 2.9424 2.44125 4.7287 2.86875" fill="#0078bb"/></g></svg>